# xmcd
#
# Track frame offsets:
#	150
#	14475
#	29420
#	44465
#	55677
#	69690
#	83467
#	98895
#	114085
#	131275
#	146767
#	157402
#	172495
#	184025
#
# Disc length: 2585 seconds
# Revision: 0
# Processed by: cddbd v1.5.2PL0 Copyright (c) Steve Scherf et al.
# Submitted via: dBpowerAMP V12.0
#
DISCID=c20a170e
DTITLE=Ricky Van Shelton - Greatest Hits Plus
DYEAR=1992
DGENRE=Country
TTITLE0=Just as I Am
TTITLE1=Wild Man
TTITLE2=Somebody Lied
TTITLE3=I’ve Cried My Last Tear for You
TTITLE4=I’ll Leave This World Loving You
TTITLE5=Statue of a Fool
TTITLE6=I Am a Simple Man
TTITLE7=Life Turned Her That Way
TTITLE8=Keep It Between the Lines
TTITLE9=Rockin’ Years
TTITLE10=From a Jack to a King
TTITLE11=Living Proof
TTITLE12=Don’t We All Have the Right
TTITLE13=Wear My Ring Around Your Neck
EXTD=
EXTT0=
EXTT1=
EXTT2=
EXTT3=
EXTT4=
EXTT5=
EXTT6=
EXTT7=
EXTT8=
EXTT9=
EXTT10=
EXTT11=
EXTT12=
EXTT13=
PLAYORDER=
